<svg width="167" height="197" viewBox="0 0 167 197" fill="none" xmlns="http://www.w3.org/2000/svg">
<path fill-rule="evenodd" clip-rule="evenodd" d="M49.8846 79.0989C87.3567 66.1607 93.7037 32.5335 88.9434 1.65264C88.9434 0.554111 89.9199 -0.239271 90.8353 0.065876C126.721 17.5813 167 55.8467 167 113.214C167 157.217 132.885 196.092 83.3287 196.092C39.3876 198.106 2.09864 164.052 0.0846681 120.111C-1.25798 90.9996 13.4501 63.4754 38.3501 48.3401C39.3266 47.7298 40.6082 48.3401 40.6082 49.4386C41.0964 55.3585 42.6832 70.1886 49.2133 79.0989H49.8236H49.8846Z" fill="white"/>
<ellipse cx="42.6182" cy="116.5" rx="9.19831" ry="19.8033" transform="rotate(-57 42.6182 116.5)" fill="#EB545D"/>
<ellipse cx="46.9436" cy="110.016" rx="2.29964" ry="9.80441" transform="rotate(34.6022 46.9436 110.016)" fill="white"/>
<ellipse cx="9.19831" cy="19.8033" rx="9.19831" ry="19.8033" transform="matrix(-0.544639 -0.838671 -0.838671 0.544639 147.109 113.429)" fill="#EB545D"/>
<ellipse cx="2.29964" cy="9.80441" rx="2.29964" ry="9.80441" transform="matrix(-0.823114 0.567875 0.567875 0.823114 117.491 100.64)" fill="white"/>
</svg>
